<?xml version="1.0" encoding="UTF-8" standalone="no"?>
<!-- Created with Inkscape (http://www.inkscape.org/) -->

<svg
   xmlns:dc="http://purl.org/dc/elements/1.1/"
   xmlns:cc="http://creativecommons.org/ns#"
   xmlns:rdf="http://www.w3.org/1999/02/22-rdf-syntax-ns#"
   xmlns:svg="http://www.w3.org/2000/svg"
   xmlns="http://www.w3.org/2000/svg"
   xmlns:sodipodi="http://sodipodi.sourceforge.net/DTD/sodipodi-0.dtd"
   xmlns:inkscape="http://www.inkscape.org/namespaces/inkscape"
   width="11.223056mm"
   height="11.933564mm"
   viewBox="0 0 11.223056 11.933564"
   version="1.1"
   id="svg6649"
   inkscape:version="0.92.3 (2405546, 2018-03-11)"
   sodipodi:docname="logo-shadowhand.svg">
  <defs
     id="defs6643" />
  <sodipodi:namedview
     id="base"
     pagecolor="#ffffff"
     bordercolor="#666666"
     borderopacity="1.0"
     inkscape:pageopacity="0.0"
     inkscape:pageshadow="2"
     inkscape:zoom="15.839192"
     inkscape:cx="12.028616"
     inkscape:cy="20.763654"
     inkscape:document-units="mm"
     inkscape:current-layer="layer1"
     showgrid="false"
     inkscape:window-width="1920"
     inkscape:window-height="1017"
     inkscape:window-x="-8"
     inkscape:window-y="-8"
     inkscape:window-maximized="1" />
  <metadata
     id="metadata6646">
    <rdf:RDF>
      <cc:Work
         rdf:about="">
        <dc:format>image/svg+xml</dc:format>
        <dc:type
           rdf:resource="http://purl.org/dc/dcmitype/StillImage" />
        <dc:title></dc:title>
      </cc:Work>
    </rdf:RDF>
  </metadata>
  <g
     inkscape:label="Layer 1"
     inkscape:groupmode="layer"
     id="layer1"
     transform="translate(-51.840853,-59.711788)">
    <path
       style="display:inline;fill:#e00000;fill-opacity:1;stroke:#000000;stroke-width:0.11;stroke-linecap:butt;stroke-linejoin:miter;stroke-miterlimit:4;stroke-dasharray:none;stroke-opacity:1"
       d="m 51.895853,68.616977 v -1.19269 l 0.04677,-0.327405 0.469339,-0.812917 1.270169,-2.664182 1.240235,-2.66237 0.545703,-0.677994 0.611849,-0.396875 0.562239,-0.115756 h 1.86862 l 0.545703,0.08268 0.429948,0.28112 0.661459,0.859896 0.529166,1.471745 0.578776,1.389062 0.446485,1.190625 0.23151,0.347266 0.529167,0.926042 0.248047,0.892969 0.214973,0.826823 0.08268,0.545703 -0.03307,0.628385 -0.06614,0.198438 -0.148827,0.264583 -0.545703,0.628385 -0.297656,0.380338 -0.363803,0.529168 -0.135716,0.166783 -0.15739,0.130163 -0.252597,0.08339 H 57.717034 54.889295 L 54.492418,71.491137 53.748277,71.110799 53.384475,70.697387 53.004137,70.118611 52.47497,69.523299 52.342678,69.391007 52.127704,69.19257 52.011949,69.027205 Z"
       id="path4831"
       inkscape:connector-curvature="0"
       sodipodi:nodetypes="ccccccccccccccccccccccccccccccccccccccccc" />
    <g
       transform="translate(12.770933,56.272387)"
       id="g4888"
       style="display:inline;stroke-width:0.05;stroke-miterlimit:4;stroke-dasharray:none">
      <path
         inkscape:connector-curvature="0"
         id="path4843"
         d="m 43.09401,11.564193 -0.396867,0.06128 -0.40341,0.128623 -0.923751,0.479415 -0.701582,0.391717 -0.268941,0.111084 -0.578805,0.333252 -0.163703,0.121315"
         style="display:inline;fill:none;stroke:#000000;stroke-width:0.05;stroke-linecap:butt;stroke-linejoin:miter;stroke-miterlimit:4;stroke-dasharray:none;stroke-opacity:1" />
      <path
         inkscape:connector-curvature="0"
         id="path4845"
         d="m 39.641028,10.011578 0.831953,0.04366 0.752409,0.07855 1.244367,0.128158 0.53725,0.02467"
         style="display:inline;fill:none;stroke:#000000;stroke-width:0.05;stroke-linecap:butt;stroke-linejoin:miter;stroke-miterlimit:4;stroke-dasharray:none;stroke-opacity:1" />
      <path
         inkscape:connector-curvature="0"
         id="path4847"
         d="M 43.01133,8.8356775 42.382942,8.3313153 41.696679,7.8600262 41.188182,7.4838218 40.954877,7.3224286"
         style="display:inline;fill:none;stroke:#000000;stroke-width:0.05;stroke-linecap:butt;stroke-linejoin:miter;stroke-miterlimit:4;stroke-dasharray:none;stroke-opacity:1" />
      <path
         inkscape:connector-curvature="0"
         id="path4849"
         d="m 42.151432,4.6850265 0.23151,0.1901693 0.206706,0.3472656 0.289388,0.396875 0.289388,0.6118489 0.334865,0.8102862"
         style="display:inline;fill:none;stroke:#000000;stroke-width:0.05;stroke-linecap:butt;stroke-linejoin:miter;stroke-miterlimit:4;stroke-dasharray:none;stroke-opacity:1" />
      <path
         inkscape:connector-curvature="0"
         id="path4851"
         d="m 44.615364,5.9583338 0.04036,-2.4536831"
         style="display:inline;fill:none;stroke:#000000;stroke-width:0.05;stroke-linecap:butt;stroke-linejoin:miter;stroke-miterlimit:4;stroke-dasharray:none;stroke-opacity:1" />
      <path
         inkscape:connector-curvature="0"
         id="path4853"
         d="M 46.120182,6.4378908 46.631849,5.9134173 46.982641,5.4223096 47.251582,5.1533697 47.485442,4.989667"
         style="display:inline;fill:none;stroke:#000000;stroke-width:0.05;stroke-linecap:butt;stroke-linejoin:miter;stroke-miterlimit:4;stroke-dasharray:none;stroke-opacity:1" />
      <path
         inkscape:connector-curvature="0"
         id="path4855"
         d="M 48.502736,7.5153641 47.976549,8.064937 47.380204,8.6262029 46.842325,9.0588456 46.417846,9.3648439"
         style="display:inline;fill:none;stroke:#000000;stroke-width:0.05;stroke-linecap:butt;stroke-linejoin:miter;stroke-miterlimit:4;stroke-dasharray:none;stroke-opacity:1" />
      <path
         inkscape:connector-curvature="0"
         id="path4841"
         d="m 41.721484,15.21875 0.461163,-0.746026 0.42095,-0.508648 0.426796,-0.432642 0.561266,-0.526187 0.341575,-0.409589"
         style="fill:none;stroke:#000000;stroke-width:0.05;stroke-linecap:butt;stroke-linejoin:miter;stroke-miterlimit:4;stroke-dasharray:none;stroke-opacity:1" />
      <path
         inkscape:connector-curvature="0"
         id="path4857"
         d="m 46.980085,10.208204 v 0 l 0.365041,-0.09699 0.385871,0.04677 1.04068,0.163703 0.526188,0.03508 0.456027,0.01169"
         style="fill:none;stroke:#000000;stroke-width:0.05;stroke-linecap:butt;stroke-linejoin:miter;stroke-miterlimit:4;stroke-dasharray:none;stroke-opacity:1" />
      <path
         inkscape:connector-curvature="0"
         id="path4859"
         d="m 47.029705,11.200391 0.327113,0.290607 0.444336,0.38587 0.502801,0.26894 0.80682,0.385871 0.432641,0.152009 0.59513,0.451469"
         style="fill:none;stroke:#000000;stroke-width:0.05;stroke-linecap:butt;stroke-linejoin:miter;stroke-miterlimit:4;stroke-dasharray:none;stroke-opacity:1" />
      <path
         inkscape:connector-curvature="0"
         id="path4865"
         d="m 45.258471,12.763375 -0.130477,0.388318 -0.115755,0.79375 -0.03307,0.810286 0.04961,0.512631"
         style="fill:none;stroke:#000000;stroke-width:0.05;stroke-linecap:butt;stroke-linejoin:miter;stroke-miterlimit:4;stroke-dasharray:none;stroke-opacity:1" />
      <path
         inkscape:connector-curvature="0"
         id="path4867"
         d="m 46.514067,12.338569 -0.0218,0.209543 0.09095,0.446485 0.28112,0.355534 0.479557,0.570507 0.429948,0.504362 0.37207,0.463021 0.343554,0.346556"
         style="fill:none;stroke:#000000;stroke-width:0.05;stroke-linecap:butt;stroke-linejoin:miter;stroke-miterlimit:4;stroke-dasharray:none;stroke-opacity:1" />
    </g>
    <path
       style="display:inline;fill:#910000;fill-opacity:1;stroke:#000000;stroke-width:0.11;stroke-linecap:butt;stroke-linejoin:miter;stroke-miterlimit:4;stroke-dasharray:none;stroke-opacity:1"
       d="m 57.717027,69.027205 -0.694531,-0.03307 -0.318327,-0.12609 -0.144694,-0.07235 -0.396875,-0.363802 -0.297656,-0.595313 -0.04134,-0.181901 -0.04134,-0.181901 v -0.895877 -1.468837 l 0.248044,-1.471744 0.380339,-0.727604 0.413411,-0.380339 0.56224,-0.297656 h 0.826823 l 0.28112,0.08268 0.132291,0.165364 0.264584,0.231511 0.165364,0.264583 0.06615,0.28112 v 2.033984 l 0.06615,0.347266 0.330729,0.248047 0.09922,0.198437 0.132292,0.396876 0.02481,0.165365 0.02481,0.165364 v 0.661458 l -0.181901,0.463021 -0.333739,0.675157 -0.130787,0.108906 -0.130787,0.108906 -0.628385,0.165364 -0.365636,0.04163 z"
       id="path4833"
       inkscape:connector-curvature="0"
       sodipodi:nodetypes="ccccccccccccccccccccccccccccccccccc" />
    <path
       style="display:inline;fill:#ffffff;fill-opacity:1;stroke:#000000;stroke-width:0.05;stroke-linecap:butt;stroke-linejoin:miter;stroke-miterlimit:4;stroke-dasharray:none;stroke-opacity:1"
       d="m 57.672215,68.605284 -0.489568,-0.02681 -0.514495,-0.280633 -0.374177,-0.724969 -0.07016,-0.792203 0.0063,-0.391812 0.02137,-1.356828 0.05444,-0.873136 0.02621,-0.621792 0.05788,-0.21084 0.08682,-0.111621 h 0.07441 l 0.06201,0.03721 0.03514,0.09405 0.02687,0.433049 -0.01077,0.588462 0.03471,0.679413 0.025,0.05097 0.06739,0.02926 0.05395,-0.01363 0.03742,-0.0467 0.0134,-0.859992 0.0046,-0.620165 0.02943,-0.537483 0.06079,-0.12243 0.09153,-0.0559 0.08259,0.0073 0.07016,0.04441 0.04709,0.155115 0.01102,0.519244 -0.01137,0.640105 0.0093,0.741629 0.06893,0.698958 0.03456,0.07697 0.06671,0.03604 0.06473,-0.0039 0.03345,-0.07492 0.01033,-0.73794 -0.02687,-0.750341 -0.0021,-0.820622 0.01447,-0.729672 0.01654,-0.223242 0.07028,-0.07441 0.157096,-0.0041 0.09095,0.07028 0.0021,0.633553 0.01034,0.803052 0.03101,0.447518 0.04754,0.385506 0.228483,0.561578 0.268941,0.374177 0.385868,0.350792 0.292328,0.268939 0.210473,0.362485 0.03508,0.5028 -0.05847,0.689891 -0.432642,0.479413 -0.537879,0.268941 z"
       id="path4835"
       inkscape:connector-curvature="0"
       sodipodi:nodetypes="ccccccccccccccccccccccccccccccccccccccccccccccccccccccccccc" />
    <path
       style="display:inline;fill:#ffffff;fill-opacity:1;stroke:#000000;stroke-width:0.05;stroke-linecap:butt;stroke-linejoin:miter;stroke-miterlimit:4;stroke-dasharray:none;stroke-opacity:1"
       d="m 58.253509,64.211012 -0.01653,-0.781347 -0.01653,-0.434083 0.0083,-0.23151 0.08681,-0.07441 0.161231,1e-6 0.05788,0.06615 0.01239,0.475423 0.01243,0.51263 0.03721,0.487826 0.08681,0.37207 0.0714,0.230507 0.06764,0.228709 0.02609,0.250433 0.03236,0.176176 0.05671,0.173805 0.09764,0.235194 -0.17987,-0.240007 -0.103864,-0.161078 -0.132647,-0.279848 -0.163149,-0.25398 -0.134922,-0.299024 z"
       id="path4837"
       inkscape:connector-curvature="0"
       sodipodi:nodetypes="ccccccccccccccccccccccc" />
  </g>
</svg>
