<?xml version="1.0" encoding="UTF-8" standalone="no"?>
<!-- Created with Inkscape (http://www.inkscape.org/) -->

<svg
   xmlns:dc="http://purl.org/dc/elements/1.1/"
   xmlns:cc="http://creativecommons.org/ns#"
   xmlns:rdf="http://www.w3.org/1999/02/22-rdf-syntax-ns#"
   xmlns:svg="http://www.w3.org/2000/svg"
   xmlns="http://www.w3.org/2000/svg"
   xmlns:sodipodi="http://sodipodi.sourceforge.net/DTD/sodipodi-0.dtd"
   xmlns:inkscape="http://www.inkscape.org/namespaces/inkscape"
   width="196.70673"
   height="196.70673"
   viewBox="0 0 52.04532 52.045322"
   version="1.1"
   id="svg8"
   inkscape:version="0.92.3 (2405546, 2018-03-11)"
   sodipodi:docname="mod_scalable.svg">
  <defs
     id="defs2" />
  <sodipodi:namedview
     id="base"
     pagecolor="#000000"
     bordercolor="#666666"
     borderopacity="1.0"
     inkscape:pageopacity="0"
     inkscape:pageshadow="2"
     inkscape:zoom="2.8284271"
     inkscape:cx="80.840785"
     inkscape:cy="82.967597"
     inkscape:document-units="mm"
     inkscape:current-layer="layer1"
     showgrid="false"
     inkscape:pagecheckerboard="true"
     inkscape:window-width="1920"
     inkscape:window-height="1017"
     inkscape:window-x="-8"
     inkscape:window-y="-8"
     inkscape:window-maximized="1"
     units="px"
     fit-margin-top="0"
     fit-margin-left="0"
     fit-margin-right="0"
     fit-margin-bottom="0" />
  <metadata
     id="metadata5">
    <rdf:RDF>
      <cc:Work
         rdf:about="">
        <dc:format>image/svg+xml</dc:format>
        <dc:type
           rdf:resource="http://purl.org/dc/dcmitype/StillImage" />
        <dc:title></dc:title>
      </cc:Work>
    </rdf:RDF>
  </metadata>
  <g
     inkscape:label="Layer 1"
     inkscape:groupmode="layer"
     id="layer1"
     style="display:inline"
     transform="translate(0,-244.95466)" />
  <g
     inkscape:groupmode="layer"
     id="layer5"
     inkscape:label="BG"
     style="display:inline"
     transform="translate(0,-12.777594)">
    <circle
       r="26.022661"
       cy="38.800255"
       cx="26.022661"
       id="circle5179"
       style="fill:#292929;fill-opacity:1;stroke-width:0.26495802" />
    <circle
       style="fill:#474747;fill-opacity:1;stroke-width:0.25448105"
       id="path4715"
       cx="26.022661"
       cy="38.800255"
       r="24.993675" />
    <circle
       r="24.266071"
       cy="38.800255"
       cx="26.022661"
       id="circle5173"
       style="fill:#292929;fill-opacity:1;stroke-width:0.24707271" />
    <circle
       style="fill:#0c0c0c;fill-opacity:1;stroke-width:0.23764393"
       id="circle5181"
       cx="26.022661"
       cy="38.800255"
       r="23.340029" />
  </g>
  <g
     inkscape:groupmode="layer"
     id="layer2"
     inkscape:label="Layer 2"
     style="display:inline"
     transform="translate(0,-244.95466)">
    <circle
       style="display:inline;fill:#b31406;fill-opacity:1;stroke-width:0.26458332"
       id="path4564"
       cx="25.994894"
       cy="270.93198"
       r="1.7953869" />
    <circle
       style="display:inline;fill:#fe5708;fill-opacity:1;stroke-width:0.26060271"
       id="path4582"
       cx="25.994894"
       cy="270.93341"
       r="1.6404011" />
    <circle
       id="circle4578-4"
       style="display:inline;fill:#b31406;fill-opacity:1;stroke-width:0.20181014"
       cy="266.00439"
       cx="26.442812"
       r="1.3694261" />
    <circle
       id="circle4578-4-9"
       style="display:inline;fill:#fc650f;fill-opacity:1;stroke-width:0.18064202"
       cy="266.00058"
       cx="26.431929"
       r="1.2257853" />
    <circle
       style="display:inline;fill:#af1007;fill-opacity:1;stroke-width:0.26458332"
       id="path4723"
       cx="23.892841"
       cy="262.17758"
       r="1.2756697" />
    <path
       style="fill:#fe7213;fill-opacity:1;stroke-width:0.26458332"
       d="m 23.96349,261.31531 a 1.0984933,1.0984933 0 0 0 -1.098124,1.09864 1.0984933,1.0984933 0 0 0 0.528651,0.93741 1.2756697,1.2756697 0 0 0 0.0021,10e-4 1.2756697,1.2756697 0 0 0 0.496612,0.10077 1.2756697,1.2756697 0 0 0 1.064532,-0.57361 1.0984933,1.0984933 0 0 0 0.104905,-0.4656 1.0984933,1.0984933 0 0 0 -1.098642,-1.09864 z"
       id="path4726"
       inkscape:connector-curvature="0" />
    <circle
       style="display:inline;fill:#cd1e07;fill-opacity:1;stroke-width:0.26458332"
       id="path4787"
       cx="20.160328"
       cy="260.59482"
       r="1.2166108" />
    <path
       style="fill:#ff9e0c;fill-opacity:1;stroke-width:0.26458332"
       d="m 20.337357,259.75623 a 1.0276227,1.0276227 0 0 0 -1.027328,1.02733 1.0276227,1.0276227 0 0 0 0.945162,1.02371 1.2166108,1.2166108 0 0 0 1.108977,-1.04748 1.0276227,1.0276227 0 0 0 -1.026811,-1.00356 z"
       id="path4794"
       inkscape:connector-curvature="0" />
    <circle
       style="fill:#d81b07;fill-opacity:1;stroke-width:0.26458332"
       id="path4801"
       cx="16.381863"
       cy="261.14612"
       r="1.1108389" />
    <path
       style="display:inline;fill:#feec56;fill-opacity:1;stroke-width:0.26458332"
       d="m 16.627505,260.52621 a 0.88867114,0.88867114 0 0 0 -0.888834,0.88883 0.88867114,0.88867114 0 0 0 0.60048,0.83975 1.1108389,1.1108389 0 0 0 0.04289,0.002 1.1108389,1.1108389 0 0 0 1.107943,-1.05213 0.88867114,0.88867114 0 0 0 -0.86248,-0.67851 z"
       id="path4803"
       inkscape:connector-curvature="0" />
    <circle
       style="fill:#c81c08;fill-opacity:1;stroke-width:0.26458332"
       id="path4809"
       cx="13.217378"
       cy="262.9855"
       r="0.94257814" />
    <path
       style="fill:#f8d62d;fill-opacity:1;stroke-width:0.26458332"
       d="m 13.444754,262.42739 a 0.76481121,0.76481121 0 0 0 -0.764811,0.76481 0.76481121,0.76481121 0 0 0 0.556555,0.73535 0.94257811,0.94257811 0 0 0 0.923458,-0.94206 0.94257811,0.94257811 0 0 0 -0.0031,-0.0718 0.76481121,0.76481121 0 0 0 -0.712101,-0.48627 z"
       id="path4815"
       inkscape:connector-curvature="0" />
    <circle
       style="fill:#bf1507;fill-opacity:1;stroke-width:0.26458332"
       id="path4820"
       cx="11.266076"
       cy="265.75534"
       r="0.88470054" />
    <path
       style="fill:#fe830b;fill-opacity:1;stroke-width:0.26458332"
       d="m 11.540994,265.31455 a 0.69573599,0.69573599 0 0 0 -0.695565,0.69608 0.69573599,0.69573599 0 0 0 0.398942,0.62838 0.88470054,0.88470054 0 0 0 0.0217,0.001 0.88470054,0.88470054 0 0 0 0.884701,-0.8847 0.88470054,0.88470054 0 0 0 -0.0052,-0.0873 0.69573599,0.69573599 0 0 0 -0.604614,-0.35347 z"
       id="path4824"
       inkscape:connector-curvature="0" />
    <circle
       style="fill:#c50d04;fill-opacity:1;stroke-width:0.24757525"
       id="path4829"
       cx="10.37411"
       cy="269.07092"
       r="0.76593602" />
    <path
       style="fill:#fe5507;fill-opacity:1;stroke-width:0.25962743"
       d="m 10.564826,268.52417 a 0.62519877,0.61973123 0 0 0 -0.625285,0.62012 0.62519877,0.61973123 0 0 0 0.625285,0.6196 0.62519877,0.61973123 0 0 0 0.193787,-0.0315 0.76593601,0.76593601 0 0 0 0.381372,-0.66146 0.76593601,0.76593601 0 0 0 -0.04392,-0.25218 0.62519877,0.61973123 0 0 0 -0.531234,-0.29456 z"
       id="path4831"
       inkscape:connector-curvature="0" />
    <circle
       style="display:inline;fill:#960c04;fill-opacity:1;stroke-width:0.26458332"
       id="path4836"
       cx="10.298692"
       cy="273.75073"
       r="0.66145831" />
    <circle
       style="display:inline;fill:#f64906;fill-opacity:1;stroke-width:0.26458332"
       id="path4839"
       cx="10.319024"
       cy="273.75705"
       r="0.549573" />
    <circle
       r="1.3694261"
       cx="223.07161"
       cy="-161.79198"
       style="display:inline;fill:#b31406;fill-opacity:1;stroke-width:0.20181014"
       id="circle5099"
       transform="rotate(119.71845)" />
    <circle
       r="1.2257853"
       cx="223.06071"
       cy="-161.79579"
       style="display:inline;fill:#fc650f;fill-opacity:1;stroke-width:0.18064202"
       id="circle5101"
       transform="rotate(119.71845)" />
    <circle
       r="1.2756697"
       cy="-165.6188"
       cx="220.52164"
       id="circle5103"
       style="display:inline;fill:#af1007;fill-opacity:1;stroke-width:0.26458332"
       transform="rotate(119.71845)" />
    <path
       inkscape:connector-curvature="0"
       id="path5105"
       d="m 35.228076,274.10927 a 1.0984933,1.0984933 0 0 0 -0.409755,-1.49834 1.0984933,1.0984933 0 0 0 -1.076185,-0.006 1.2756697,1.2756697 0 0 0 -0.002,9.1e-4 1.2756697,1.2756697 0 0 0 -0.333696,0.38135 1.2756697,1.2756697 0 0 0 -0.02957,1.20887 1.0984933,1.0984933 0 0 0 0.352365,0.32193 1.0984933,1.0984933 0 0 0 1.498777,-0.4095 z"
       style="fill:#fe7213;fill-opacity:1;stroke-width:0.26458332" />
    <circle
       r="1.2166108"
       cy="-167.20157"
       cx="216.78912"
       id="circle5107"
       style="display:inline;fill:#cd1e07;fill-opacity:1;stroke-width:0.26458332"
       transform="rotate(119.71845)" />
    <path
       inkscape:connector-curvature="0"
       id="path5109"
       d="m 38.379709,271.73296 a 1.0276227,1.0276227 0 0 0 -0.382922,-1.40148 1.0276227,1.0276227 0 0 0 -1.357617,0.31334 1.2166108,1.2166108 0 0 0 0.359945,1.4824 1.0276227,1.0276227 0 0 0 1.380594,-0.39426 z"
       style="fill:#ff9e0c;fill-opacity:1;stroke-width:0.26458332" />
    <circle
       r="1.1108389"
       cy="-166.65027"
       cx="213.01065"
       id="circle5111"
       style="fill:#d81b07;fill-opacity:1;stroke-width:0.26458332"
       transform="rotate(119.71845)" />
    <path
       inkscape:connector-curvature="0"
       id="path5113"
       d="m 39.550118,268.12935 a 0.88867114,0.88867114 0 0 0 -0.331305,-1.21256 0.88867114,0.88867114 0 0 0 -1.026971,0.10519 1.1108389,1.1108389 0 0 0 -0.023,0.0362 1.1108389,1.1108389 0 0 0 0.364495,1.48379 0.88867114,0.88867114 0 0 0 1.016832,-0.41267 z"
       style="display:inline;fill:#feec56;fill-opacity:1;stroke-width:0.26458332" />
    <circle
       r="0.94257814"
       cy="-164.81087"
       cx="209.84616"
       id="circle5115"
       style="fill:#c81c08;fill-opacity:1;stroke-width:0.26458332"
       transform="rotate(119.71845)" />
    <path
       inkscape:connector-curvature="0"
       id="path5117"
       d="m 39.476809,264.42273 a 0.76481121,0.76481121 0 0 0 -0.285071,-1.04336 0.76481121,0.76481121 0 0 0 -0.914545,0.11881 0.94257811,0.94257811 0 0 0 0.360367,1.26902 0.94257811,0.94257811 0 0 0 0.0639,0.033 0.76481121,0.76481121 0 0 0 0.775329,-0.37738 z"
       style="fill:#f8d62d;fill-opacity:1;stroke-width:0.26458332" />
    <circle
       r="0.88470054"
       cy="-162.04103"
       cx="207.89487"
       id="circle5119"
       style="fill:#bf1507;fill-opacity:1;stroke-width:0.26458332"
       transform="rotate(119.71845)" />
    <path
       inkscape:connector-curvature="0"
       id="path5121"
       d="m 37.913157,261.3381 a 0.69573599,0.69573599 0 0 0 -0.259708,-0.94916 0.69573599,0.69573599 0 0 0 -0.743523,0.0345 0.88470054,0.88470054 0 0 0 -0.01163,0.0183 0.88470054,0.88470054 0 0 0 0.329757,1.20692 0.88470054,0.88470054 0 0 0 0.07839,0.0387 0.69573599,0.69573599 0 0 0 0.60671,-0.34985 z"
       style="fill:#fe830b;fill-opacity:1;stroke-width:0.26458332" />
    <circle
       r="0.76593602"
       cy="-158.72545"
       cx="207.0029"
       id="circle5123"
       style="fill:#c50d04;fill-opacity:1;stroke-width:0.24757525"
       transform="rotate(119.71845)" />
    <path
       inkscape:connector-curvature="0"
       id="path5125"
       d="m 35.609615,258.89919 a 0.61973123,0.62519877 29.718449 0 0 -0.228578,-0.85046 0.61973123,0.62519877 29.718449 0 0 -0.848083,0.23588 0.61973123,0.62519877 29.718449 0 0 -0.06871,0.18392 0.76593601,0.76593601 0 0 0 0.385398,0.65912 0.76593601,0.76593601 0 0 0 0.240788,0.0869 0.61973123,0.62519877 29.718449 0 0 0.519171,-0.31533 z"
       style="fill:#fe5507;fill-opacity:1;stroke-width:0.25962743" />
    <circle
       r="0.66145831"
       cy="-154.04564"
       cx="206.92747"
       id="circle5127"
       style="display:inline;fill:#960c04;fill-opacity:1;stroke-width:0.26458332"
       transform="rotate(119.71845)" />
    <circle
       r="0.549573"
       cy="-154.03932"
       cx="206.94781"
       id="circle5129"
       style="display:inline;fill:#f64906;fill-opacity:1;stroke-width:0.26458332"
       transform="rotate(119.71845)" />
    <circle
       transform="rotate(-120.30383)"
       id="circle5131"
       style="display:inline;fill:#b31406;fill-opacity:1;stroke-width:0.20181014"
       cy="-119.38171"
       cx="-246.42822"
       r="1.3694261" />
    <circle
       transform="rotate(-120.30383)"
       id="circle5133"
       style="display:inline;fill:#fc650f;fill-opacity:1;stroke-width:0.18064202"
       cy="-119.38554"
       cx="-246.43912"
       r="1.2257853" />
    <circle
       transform="rotate(-120.30383)"
       style="display:inline;fill:#af1007;fill-opacity:1;stroke-width:0.26458332"
       id="circle5135"
       cx="-248.97821"
       cy="-123.20856"
       r="1.2756697" />
    <path
       style="fill:#fe7213;fill-opacity:1;stroke-width:0.26458332"
       d="m 18.477017,277.5016 a 1.0984933,1.0984933 0 0 0 1.502629,0.39373 1.0984933,1.0984933 0 0 0 0.542945,-0.92921 1.2756697,1.2756697 0 0 0 2.42e-4,-0.002 1.2756697,1.2756697 0 0 0 -0.163588,-0.47961 1.2756697,1.2756697 0 0 0 -1.032365,-0.62965 1.0984933,1.0984933 0 0 0 -0.454912,0.14437 1.0984933,1.0984933 0 0 0 -0.394166,1.5029 z"
       id="path5137"
       inkscape:connector-curvature="0" />
    <circle
       transform="rotate(-120.30383)"
       style="display:inline;fill:#cd1e07;fill-opacity:1;stroke-width:0.26458332"
       id="circle5139"
       cx="-252.71072"
       cy="-124.79132"
       r="1.2166108" />
    <path
       style="fill:#ff9e0c;fill-opacity:1;stroke-width:0.26458332"
       d="m 18.960673,281.41895 a 1.0276227,1.0276227 0 0 0 1.40532,0.36858 1.0276227,1.0276227 0 0 0 0.406929,-1.33256 1.2166108,1.2166108 0 0 0 -1.463935,-0.4289 1.0276227,1.0276227 0 0 0 -0.348314,1.39288 z"
       id="path5141"
       inkscape:connector-curvature="0" />
    <circle
       transform="rotate(-120.30383)"
       style="fill:#d81b07;fill-opacity:1;stroke-width:0.26458332"
       id="circle5143"
       cx="-256.4892"
       cy="-124.24002"
       r="1.1108389" />
    <path
       style="display:inline;fill:#feec56;fill-opacity:1;stroke-width:0.26458332"
       d="m 21.497377,284.23338 a 0.88867114,0.88867114 0 0 0 1.215884,0.31891 0.88867114,0.88867114 0 0 0 0.422025,-0.94217 1.1108389,1.1108389 0 0 0 -0.01983,-0.0381 1.1108389,1.1108389 0 0 0 -1.467412,-0.42567 0.88867114,0.88867114 0 0 0 -0.150611,1.08699 z"
       id="path5145"
       inkscape:connector-curvature="0" />
    <circle
       transform="rotate(-120.30383)"
       style="fill:#c81c08;fill-opacity:1;stroke-width:0.26458332"
       id="circle5147"
       cx="-259.65366"
       cy="-122.4006"
       r="0.94257814" />
    <path
       style="fill:#f8d62d;fill-opacity:1;stroke-width:0.26458332"
       d="m 24.744752,286.02194 a 0.76481121,0.76481121 0 0 0 1.04622,0.27439 0.76481121,0.76481121 0 0 0 0.354049,-0.85156 0.94257811,0.94257811 0 0 0 -1.27931,-0.32191 0.94257811,0.94257811 0 0 0 -0.06048,0.039 0.76481121,0.76481121 0 0 0 -0.06051,0.86015 z"
       id="path5149"
       inkscape:connector-curvature="0" />
    <circle
       transform="rotate(-120.30383)"
       style="fill:#bf1507;fill-opacity:1;stroke-width:0.26458332"
       id="circle5151"
       cx="-261.60495"
       cy="-119.63079"
       r="0.88470054" />
    <path
       style="fill:#fe830b;fill-opacity:1;stroke-width:0.26458332"
       d="m 28.198021,286.20876 a 0.69573599,0.69573599 0 0 0 0.951948,0.24929 0.69573599,0.69573599 0 0 0 0.341657,-0.66128 0.88470054,0.88470054 0 0 0 -0.0099,-0.0191 0.88470054,0.88470054 0 0 0 -1.210229,-0.31742 0.88470054,0.88470054 0 0 0 -0.07269,0.0486 0.69573599,0.69573599 0 0 0 -4.4e-5,0.70035 z"
       id="path5153"
       inkscape:connector-curvature="0" />
    <circle
       transform="rotate(-120.30383)"
       style="fill:#c50d04;fill-opacity:1;stroke-width:0.24757525"
       id="circle5155"
       cx="-262.49692"
       cy="-116.3152"
       r="0.76593602" />
    <path
       style="fill:#fe5507;fill-opacity:1;stroke-width:0.25962743"
       d="m 31.461643,285.43202 a 0.62519877,0.61973123 59.696185 0 0 0.850906,0.22694 0.62519877,0.61973123 59.696185 0 0 0.219425,-0.85249 0.62519877,0.61973123 59.696185 0 0 -0.124984,-0.15141 0.76593601,0.76593601 0 0 0 -0.763511,0.003 0.76593601,0.76593601 0 0 0 -0.195593,0.16516 0.62519877,0.61973123 59.696185 0 0 0.01364,0.60728 z"
       id="path5157"
       inkscape:connector-curvature="0" />
    <circle
       transform="rotate(-120.30383)"
       style="display:inline;fill:#960c04;fill-opacity:1;stroke-width:0.26458332"
       id="circle5159"
       cx="-262.57233"
       cy="-111.63539"
       r="0.66145831" />
    <circle
       transform="rotate(-120.30383)"
       style="display:inline;fill:#f64906;fill-opacity:1;stroke-width:0.26458332"
       id="circle5161"
       cx="-262.552"
       cy="-111.62907"
       r="0.549573" />
  </g>
</svg>
