<?xml version="1.0" encoding="UTF-8" standalone="no"?>
<!-- Created with Inkscape (http://www.inkscape.org/) -->

<svg
   xmlns:dc="http://purl.org/dc/elements/1.1/"
   xmlns:cc="http://creativecommons.org/ns#"
   xmlns:rdf="http://www.w3.org/1999/02/22-rdf-syntax-ns#"
   xmlns:svg="http://www.w3.org/2000/svg"
   xmlns="http://www.w3.org/2000/svg"
   xmlns:sodipodi="http://sodipodi.sourceforge.net/DTD/sodipodi-0.dtd"
   xmlns:inkscape="http://www.inkscape.org/namespaces/inkscape"
   width="166.25714"
   height="166.25714"
   viewBox="0 0 43.988868 43.988869"
   version="1.1"
   id="svg8"
   inkscape:version="0.92.3 (2405546, 2018-03-11)"
   sodipodi:docname="mod_scalable.svg">
  <sodipodi:namedview
     id="base"
     pagecolor="#000000"
     bordercolor="#666666"
     borderopacity="1.0"
     inkscape:pageopacity="0"
     inkscape:pageshadow="2"
     inkscape:zoom="2.8284271"
     inkscape:cx="39.548389"
     inkscape:cy="83.154299"
     inkscape:document-units="mm"
     inkscape:current-layer="layer5"
     showgrid="false"
     inkscape:pagecheckerboard="true"
     inkscape:window-width="1920"
     inkscape:window-height="1017"
     inkscape:window-x="-8"
     inkscape:window-y="-8"
     inkscape:window-maximized="1"
     units="px"
     fit-margin-top="0"
     fit-margin-left="0"
     fit-margin-right="0"
     fit-margin-bottom="0" />
  <defs
     id="defs2" />
  <metadata
     id="metadata5">
    <rdf:RDF>
      <cc:Work
         rdf:about="">
        <dc:format>image/svg+xml</dc:format>
        <dc:type
           rdf:resource="http://purl.org/dc/dcmitype/StillImage" />
        <dc:title></dc:title>
      </cc:Work>
    </rdf:RDF>
  </metadata>
  <g
     transform="translate(-4.0282269,-248.98288)"
     style="display:inline;opacity:1"
     id="layer1"
     inkscape:groupmode="layer"
     inkscape:label="Layer 1" />
  <g
     transform="translate(-4.0282269,-16.80582)"
     style="display:inline;opacity:1"
     inkscape:label="BG"
     id="layer5"
     inkscape:groupmode="layer">
    <circle
       style="opacity:1;fill:#292929;fill-opacity:1;stroke-width:0.21196643"
       id="circle5179"
       cx="26.022661"
       cy="38.800255"
       r="20.818129" />
    <circle
       r="19.99494"
       cy="38.800255"
       cx="26.022661"
       id="path4715"
       style="opacity:1;fill:#77aef4;fill-opacity:1;stroke-width:0.20358483" />
    <circle
       style="opacity:1;fill:#0f89e4;fill-opacity:1;stroke-width:0.19765817"
       id="circle5173"
       cx="26.022661"
       cy="38.800255"
       r="19.412857" />
    <circle
       r="18.672024"
       cy="38.800255"
       cx="26.022661"
       id="circle5181"
       style="opacity:1;fill:#0c0c0c;fill-opacity:1;stroke-width:0.19011514" />
  </g>
  <g
     transform="translate(-4.0282269,-248.98288)"
     style="display:inline;opacity:1"
     inkscape:label="Layer 2"
     id="layer2"
     inkscape:groupmode="layer">
    <circle
       r="1.7953869"
       cy="270.93198"
       cx="25.994894"
       id="path4564"
       style="display:inline;opacity:1;fill:#09506f;fill-opacity:1;stroke-width:0.26458332" />
    <circle
       r="1.6404011"
       cy="270.93341"
       cx="25.994894"
       id="path4582"
       style="display:inline;opacity:1;fill:#0f89e4;fill-opacity:1;stroke-width:0.26060271" />
    <circle
       r="1.3694261"
       cx="26.442812"
       cy="266.00439"
       style="display:inline;opacity:1;fill:#09506f;fill-opacity:1;stroke-width:0.20181014"
       id="circle4578-4" />
    <circle
       r="1.2257853"
       cx="26.431929"
       cy="266.00058"
       style="display:inline;opacity:1;fill:#2190ee;fill-opacity:1;stroke-width:0.18064202"
       id="circle4578-4-9" />
    <circle
       r="1.2756697"
       cy="262.17758"
       cx="23.892841"
       id="path4723"
       style="display:inline;opacity:1;fill:#084d67;fill-opacity:1;stroke-width:0.26458332" />
    <path
       inkscape:connector-curvature="0"
       id="path4726"
       d="m 23.96349,261.31531 a 1.0984933,1.0984933 0 0 0 -1.098124,1.09864 1.0984933,1.0984933 0 0 0 0.528651,0.93741 1.2756697,1.2756697 0 0 0 0.0021,10e-4 1.2756697,1.2756697 0 0 0 0.496612,0.10077 1.2756697,1.2756697 0 0 0 1.064532,-0.57361 1.0984933,1.0984933 0 0 0 0.104905,-0.4656 1.0984933,1.0984933 0 0 0 -1.098642,-1.09864 z"
       style="opacity:1;fill:#3397f0;fill-opacity:1;stroke-width:0.26458332" />
    <circle
       r="1.2166108"
       cy="260.59482"
       cx="20.160328"
       id="path4787"
       style="display:inline;opacity:1;fill:#0a5f87;fill-opacity:1;stroke-width:0.26458332" />
    <path
       inkscape:connector-curvature="0"
       id="path4794"
       d="m 20.337357,259.75623 a 1.0276227,1.0276227 0 0 0 -1.027328,1.02733 1.0276227,1.0276227 0 0 0 0.945162,1.02371 1.2166108,1.2166108 0 0 0 1.108977,-1.04748 1.0276227,1.0276227 0 0 0 -1.026811,-1.00356 z"
       style="opacity:1;fill:#70aaf3;fill-opacity:1;stroke-width:0.26458332" />
    <circle
       r="1.1108389"
       cy="261.14612"
       cx="16.381863"
       id="path4801"
       style="opacity:1;fill:#0b6289;fill-opacity:1;stroke-width:0.26458332" />
    <path
       inkscape:connector-curvature="0"
       id="path4803"
       d="m 16.627505,260.52621 a 0.88867114,0.88867114 0 0 0 -0.888834,0.88883 0.88867114,0.88867114 0 0 0 0.60048,0.83975 1.1108389,1.1108389 0 0 0 0.04289,0.002 1.1108389,1.1108389 0 0 0 1.107943,-1.05213 0.88867114,0.88867114 0 0 0 -0.86248,-0.67851 z"
       style="display:inline;opacity:1;fill:#77aef4;fill-opacity:1;stroke-width:0.26458332" />
    <circle
       r="0.94257814"
       cy="262.9855"
       cx="13.217378"
       id="path4809"
       style="opacity:1;fill:#0a5c81;fill-opacity:1;stroke-width:0.26458332" />
    <path
       inkscape:connector-curvature="0"
       id="path4815"
       d="m 13.444754,262.42739 a 0.76481121,0.76481121 0 0 0 -0.764811,0.76481 0.76481121,0.76481121 0 0 0 0.556555,0.73535 0.94257811,0.94257811 0 0 0 0.923458,-0.94206 0.94257811,0.94257811 0 0 0 -0.0031,-0.0718 0.76481121,0.76481121 0 0 0 -0.712101,-0.48627 z"
       style="opacity:1;fill:#7fb3f5;fill-opacity:1;stroke-width:0.26458332" />
    <circle
       r="0.88470054"
       cy="265.75534"
       cx="11.266076"
       id="path4820"
       style="opacity:1;fill:#095575;fill-opacity:1;stroke-width:0.26458332" />
    <path
       inkscape:connector-curvature="0"
       id="path4824"
       d="m 11.540994,265.31455 a 0.69573599,0.69573599 0 0 0 -0.695565,0.69608 0.69573599,0.69573599 0 0 0 0.398942,0.62838 0.88470054,0.88470054 0 0 0 0.0217,0.001 0.88470054,0.88470054 0 0 0 0.884701,-0.8847 0.88470054,0.88470054 0 0 0 -0.0052,-0.0873 0.69573599,0.69573599 0 0 0 -0.604614,-0.35347 z"
       style="opacity:1;fill:#4a9df1;fill-opacity:1;stroke-width:0.26458332" />
    <circle
       r="0.76593602"
       cy="269.07092"
       cx="10.37411"
       id="path4829"
       style="opacity:1;fill:#095471;fill-opacity:1;stroke-width:0.24757525" />
    <path
       inkscape:connector-curvature="0"
       id="path4831"
       d="m 10.564826,268.52417 a 0.62519877,0.61973123 0 0 0 -0.625285,0.62012 0.62519877,0.61973123 0 0 0 0.625285,0.6196 0.62519877,0.61973123 0 0 0 0.193787,-0.0315 0.76593601,0.76593601 0 0 0 0.381372,-0.66146 0.76593601,0.76593601 0 0 0 -0.04392,-0.25218 0.62519877,0.61973123 0 0 0 -0.531234,-0.29456 z"
       style="opacity:1;fill:#0f88e2;fill-opacity:1;stroke-width:0.25962743" />
    <circle
       r="0.66145831"
       cy="273.75073"
       cx="10.298692"
       id="path4836"
       style="display:inline;opacity:1;fill:#074057;fill-opacity:1;stroke-width:0.26458332" />
    <circle
       r="0.549573"
       cy="273.75705"
       cx="10.319024"
       id="path4839"
       style="display:inline;opacity:1;fill:#0e80d0;fill-opacity:1;stroke-width:0.26458332" />
    <circle
       transform="rotate(119.71845)"
       id="circle5099"
       style="display:inline;opacity:1;fill:#09506f;fill-opacity:1;stroke-width:0.20181014"
       cy="-161.79198"
       cx="223.07161"
       r="1.3694261" />
    <circle
       transform="rotate(119.71845)"
       id="circle5101"
       style="display:inline;opacity:1;fill:#2190ee;fill-opacity:1;stroke-width:0.18064202"
       cy="-161.79579"
       cx="223.06071"
       r="1.2257853" />
    <circle
       transform="rotate(119.71845)"
       style="display:inline;opacity:1;fill:#084d67;fill-opacity:1;stroke-width:0.26458332"
       id="circle5103"
       cx="220.52164"
       cy="-165.6188"
       r="1.2756697" />
    <path
       style="opacity:1;fill:#3397f0;fill-opacity:1;stroke-width:0.26458332"
       d="m 35.228076,274.10927 a 1.0984933,1.0984933 0 0 0 -0.409755,-1.49834 1.0984933,1.0984933 0 0 0 -1.076185,-0.006 1.2756697,1.2756697 0 0 0 -0.002,9.1e-4 1.2756697,1.2756697 0 0 0 -0.333696,0.38135 1.2756697,1.2756697 0 0 0 -0.02957,1.20887 1.0984933,1.0984933 0 0 0 0.352365,0.32193 1.0984933,1.0984933 0 0 0 1.498777,-0.4095 z"
       id="path5105"
       inkscape:connector-curvature="0" />
    <circle
       transform="rotate(119.71845)"
       style="display:inline;opacity:1;fill:#0a5f87;fill-opacity:1;stroke-width:0.26458332"
       id="circle5107"
       cx="216.78912"
       cy="-167.20157"
       r="1.2166108" />
    <path
       style="opacity:1;fill:#70aaf3;fill-opacity:1;stroke-width:0.26458332"
       d="m 38.379709,271.73296 a 1.0276227,1.0276227 0 0 0 -0.382922,-1.40148 1.0276227,1.0276227 0 0 0 -1.357617,0.31334 1.2166108,1.2166108 0 0 0 0.359945,1.4824 1.0276227,1.0276227 0 0 0 1.380594,-0.39426 z"
       id="path5109"
       inkscape:connector-curvature="0" />
    <circle
       transform="rotate(119.71845)"
       style="opacity:1;fill:#0b6289;fill-opacity:1;stroke-width:0.26458332"
       id="circle5111"
       cx="213.01065"
       cy="-166.65027"
       r="1.1108389" />
    <path
       style="display:inline;opacity:1;fill:#77aef4;fill-opacity:1;stroke-width:0.26458332"
       d="m 39.550118,268.12935 a 0.88867114,0.88867114 0 0 0 -0.331305,-1.21256 0.88867114,0.88867114 0 0 0 -1.026971,0.10519 1.1108389,1.1108389 0 0 0 -0.023,0.0362 1.1108389,1.1108389 0 0 0 0.364495,1.48379 0.88867114,0.88867114 0 0 0 1.016832,-0.41267 z"
       id="path5113"
       inkscape:connector-curvature="0" />
    <circle
       transform="rotate(119.71845)"
       style="opacity:1;fill:#0a5c81;fill-opacity:1;stroke-width:0.26458332"
       id="circle5115"
       cx="209.84616"
       cy="-164.81087"
       r="0.94257814" />
    <path
       style="opacity:1;fill:#7fb3f5;fill-opacity:1;stroke-width:0.26458332"
       d="m 39.476809,264.42273 a 0.76481121,0.76481121 0 0 0 -0.285071,-1.04336 0.76481121,0.76481121 0 0 0 -0.914545,0.11881 0.94257811,0.94257811 0 0 0 0.360367,1.26902 0.94257811,0.94257811 0 0 0 0.0639,0.033 0.76481121,0.76481121 0 0 0 0.775329,-0.37738 z"
       id="path5117"
       inkscape:connector-curvature="0" />
    <circle
       transform="rotate(119.71845)"
       style="opacity:1;fill:#095575;fill-opacity:1;stroke-width:0.26458332"
       id="circle5119"
       cx="207.89487"
       cy="-162.04103"
       r="0.88470054" />
    <path
       style="opacity:1;fill:#4a9df1;fill-opacity:1;stroke-width:0.26458332"
       d="m 37.913157,261.3381 a 0.69573599,0.69573599 0 0 0 -0.259708,-0.94916 0.69573599,0.69573599 0 0 0 -0.743523,0.0345 0.88470054,0.88470054 0 0 0 -0.01163,0.0183 0.88470054,0.88470054 0 0 0 0.329757,1.20692 0.88470054,0.88470054 0 0 0 0.07839,0.0387 0.69573599,0.69573599 0 0 0 0.60671,-0.34985 z"
       id="path5121"
       inkscape:connector-curvature="0" />
    <circle
       transform="rotate(119.71845)"
       style="opacity:1;fill:#095471;fill-opacity:1;stroke-width:0.24757525"
       id="circle5123"
       cx="207.0029"
       cy="-158.72545"
       r="0.76593602" />
    <path
       style="opacity:1;fill:#0f88e2;fill-opacity:1;stroke-width:0.25962743"
       d="m 35.609615,258.89919 a 0.61973123,0.62519877 29.718449 0 0 -0.228578,-0.85046 0.61973123,0.62519877 29.718449 0 0 -0.848083,0.23588 0.61973123,0.62519877 29.718449 0 0 -0.06871,0.18392 0.76593601,0.76593601 0 0 0 0.385398,0.65912 0.76593601,0.76593601 0 0 0 0.240788,0.0869 0.61973123,0.62519877 29.718449 0 0 0.519171,-0.31533 z"
       id="path5125"
       inkscape:connector-curvature="0" />
    <circle
       transform="rotate(119.71845)"
       style="display:inline;opacity:1;fill:#074057;fill-opacity:1;stroke-width:0.26458332"
       id="circle5127"
       cx="206.92747"
       cy="-154.04564"
       r="0.66145831" />
    <circle
       transform="rotate(119.71845)"
       style="display:inline;opacity:1;fill:#0e80d0;fill-opacity:1;stroke-width:0.26458332"
       id="circle5129"
       cx="206.94781"
       cy="-154.03932"
       r="0.549573" />
    <circle
       r="1.3694261"
       cx="-246.42822"
       cy="-119.38171"
       style="display:inline;opacity:1;fill:#09506f;fill-opacity:1;stroke-width:0.20181014"
       id="circle5131"
       transform="rotate(-120.30383)" />
    <circle
       r="1.2257853"
       cx="-246.43912"
       cy="-119.38554"
       style="display:inline;opacity:1;fill:#2190ee;fill-opacity:1;stroke-width:0.18064202"
       id="circle5133"
       transform="rotate(-120.30383)" />
    <circle
       r="1.2756697"
       cy="-123.20856"
       cx="-248.97821"
       id="circle5135"
       style="display:inline;opacity:1;fill:#084d67;fill-opacity:1;stroke-width:0.26458332"
       transform="rotate(-120.30383)" />
    <path
       inkscape:connector-curvature="0"
       id="path5137"
       d="m 18.477017,277.5016 a 1.0984933,1.0984933 0 0 0 1.502629,0.39373 1.0984933,1.0984933 0 0 0 0.542945,-0.92921 1.2756697,1.2756697 0 0 0 2.42e-4,-0.002 1.2756697,1.2756697 0 0 0 -0.163588,-0.47961 1.2756697,1.2756697 0 0 0 -1.032365,-0.62965 1.0984933,1.0984933 0 0 0 -0.454912,0.14437 1.0984933,1.0984933 0 0 0 -0.394166,1.5029 z"
       style="opacity:1;fill:#3397f0;fill-opacity:1;stroke-width:0.26458332" />
    <circle
       r="1.2166108"
       cy="-124.79132"
       cx="-252.71072"
       id="circle5139"
       style="display:inline;opacity:1;fill:#0a5f87;fill-opacity:1;stroke-width:0.26458332"
       transform="rotate(-120.30383)" />
    <path
       inkscape:connector-curvature="0"
       id="path5141"
       d="m 18.960673,281.41895 a 1.0276227,1.0276227 0 0 0 1.40532,0.36858 1.0276227,1.0276227 0 0 0 0.406929,-1.33256 1.2166108,1.2166108 0 0 0 -1.463935,-0.4289 1.0276227,1.0276227 0 0 0 -0.348314,1.39288 z"
       style="opacity:1;fill:#70aaf3;fill-opacity:1;stroke-width:0.26458332" />
    <circle
       r="1.1108389"
       cy="-124.24002"
       cx="-256.4892"
       id="circle5143"
       style="opacity:1;fill:#0b6289;fill-opacity:1;stroke-width:0.26458332"
       transform="rotate(-120.30383)" />
    <path
       inkscape:connector-curvature="0"
       id="path5145"
       d="m 21.497377,284.23338 a 0.88867114,0.88867114 0 0 0 1.215884,0.31891 0.88867114,0.88867114 0 0 0 0.422025,-0.94217 1.1108389,1.1108389 0 0 0 -0.01983,-0.0381 1.1108389,1.1108389 0 0 0 -1.467412,-0.42567 0.88867114,0.88867114 0 0 0 -0.150611,1.08699 z"
       style="display:inline;opacity:1;fill:#77aef4;fill-opacity:1;stroke-width:0.26458332" />
    <circle
       r="0.94257814"
       cy="-122.4006"
       cx="-259.65366"
       id="circle5147"
       style="opacity:1;fill:#0a5c81;fill-opacity:1;stroke-width:0.26458332"
       transform="rotate(-120.30383)" />
    <path
       inkscape:connector-curvature="0"
       id="path5149"
       d="m 24.744752,286.02194 a 0.76481121,0.76481121 0 0 0 1.04622,0.27439 0.76481121,0.76481121 0 0 0 0.354049,-0.85156 0.94257811,0.94257811 0 0 0 -1.27931,-0.32191 0.94257811,0.94257811 0 0 0 -0.06048,0.039 0.76481121,0.76481121 0 0 0 -0.06051,0.86015 z"
       style="opacity:1;fill:#7fb3f5;fill-opacity:1;stroke-width:0.26458332" />
    <circle
       r="0.88470054"
       cy="-119.63079"
       cx="-261.60495"
       id="circle5151"
       style="opacity:1;fill:#095575;fill-opacity:1;stroke-width:0.26458332"
       transform="rotate(-120.30383)" />
    <path
       inkscape:connector-curvature="0"
       id="path5153"
       d="m 28.198021,286.20876 a 0.69573599,0.69573599 0 0 0 0.951948,0.24929 0.69573599,0.69573599 0 0 0 0.341657,-0.66128 0.88470054,0.88470054 0 0 0 -0.0099,-0.0191 0.88470054,0.88470054 0 0 0 -1.210229,-0.31742 0.88470054,0.88470054 0 0 0 -0.07269,0.0486 0.69573599,0.69573599 0 0 0 -4.4e-5,0.70035 z"
       style="opacity:1;fill:#4a9df1;fill-opacity:1;stroke-width:0.26458332" />
    <circle
       r="0.76593602"
       cy="-116.3152"
       cx="-262.49692"
       id="circle5155"
       style="opacity:1;fill:#095471;fill-opacity:1;stroke-width:0.24757525"
       transform="rotate(-120.30383)" />
    <path
       inkscape:connector-curvature="0"
       id="path5157"
       d="m 31.461643,285.43202 a 0.62519877,0.61973123 59.696185 0 0 0.850906,0.22694 0.62519877,0.61973123 59.696185 0 0 0.219425,-0.85249 0.62519877,0.61973123 59.696185 0 0 -0.124984,-0.15141 0.76593601,0.76593601 0 0 0 -0.763511,0.003 0.76593601,0.76593601 0 0 0 -0.195593,0.16516 0.62519877,0.61973123 59.696185 0 0 0.01364,0.60728 z"
       style="opacity:1;fill:#0f88e2;fill-opacity:1;stroke-width:0.25962743" />
    <circle
       r="0.66145831"
       cy="-111.63539"
       cx="-262.57233"
       id="circle5159"
       style="display:inline;opacity:1;fill:#074057;fill-opacity:1;stroke-width:0.26458332"
       transform="rotate(-120.30383)" />
    <circle
       r="0.549573"
       cy="-111.62907"
       cx="-262.552"
       id="circle5161"
       style="display:inline;opacity:1;fill:#0e80d0;fill-opacity:1;stroke-width:0.26458332"
       transform="rotate(-120.30383)" />
  </g>
</svg>
